<?xml version="1.0" encoding="UTF-8" standalone="no"?>
<!-- Created with Inkscape (http://www.inkscape.org/) -->

<svg
   xmlns:dc="http://purl.org/dc/elements/1.1/"
   xmlns:cc="http://creativecommons.org/ns#"
   xmlns:rdf="http://www.w3.org/1999/02/22-rdf-syntax-ns#"
   xmlns:svg="http://www.w3.org/2000/svg"
   xmlns="http://www.w3.org/2000/svg"
   xmlns:sodipodi="http://sodipodi.sourceforge.net/DTD/sodipodi-0.dtd"
   xmlns:inkscape="http://www.inkscape.org/namespaces/inkscape"
   version="1.1"
   id="svg10"
   xml:space="preserve"
   width="273.33334"
   height="118.66667"
   viewBox="0 0 273.33334 118.66667"
   sodipodi:docname="angle.svg"
   inkscape:version="0.92.4 (5da689c313, 2019-01-14)"><metadata
     id="metadata16"><rdf:RDF><cc:Work
         rdf:about=""><dc:format>image/svg+xml</dc:format><dc:type
           rdf:resource="http://purl.org/dc/dcmitype/StillImage" /><dc:title></dc:title></cc:Work></rdf:RDF></metadata><defs
     id="defs14"><clipPath
       clipPathUnits="userSpaceOnUse"
       id="clipPath28"><path
         d="M 0,0 H 841.91998 V 598.08002 H 0 Z"
         id="path26"
         inkscape:connector-curvature="0" /></clipPath><clipPath
       clipPathUnits="userSpaceOnUse"
       id="clipPath38"><path
         d="M 0,0 H 3508.3333 V 2488.8176 H 0 Z"
         id="path36"
         inkscape:connector-curvature="0"
         style="clip-rule:evenodd" /></clipPath><clipPath
       clipPathUnits="userSpaceOnUse"
       id="clipPath52"><path
         d="M 0,0 H 3508.3333 V 2482.8206 H 0 Z"
         id="path50"
         inkscape:connector-curvature="0"
         style="clip-rule:evenodd" /></clipPath><clipPath
       clipPathUnits="userSpaceOnUse"
       id="clipPath128"><path
         d="m 1661.2108,749.64386 h 35.9829 v 59.9715 h -35.9829 z"
         id="path126"
         inkscape:connector-curvature="0"
         style="clip-rule:evenodd" /></clipPath></defs><sodipodi:namedview
     pagecolor="#ffffff"
     bordercolor="#666666"
     borderopacity="1"
     objecttolerance="10"
     gridtolerance="10"
     guidetolerance="10"
     inkscape:pageopacity="0"
     inkscape:pageshadow="2"
     inkscape:window-width="640"
     inkscape:window-height="480"
     id="namedview12"
     showgrid="false"
     inkscape:zoom="1.7451219"
     inkscape:cx="136.66667"
     inkscape:cy="59.333336"
     inkscape:window-x="0"
     inkscape:window-y="0"
     inkscape:window-maximized="0"
     inkscape:current-layer="g18" /><g
     id="g18"
     inkscape:groupmode="layer"
     inkscape:label="angle"
     transform="matrix(1.3333333,0,0,-1.3333333,0,118.66667)"><g
       id="g20"
       transform="translate(-201,-406)"><g
         id="g22"><g
           id="g24"
           clip-path="url(#clipPath28)"><g
             id="g30"
             transform="matrix(0.23999999,0,0,-0.23999999,0,598.08002)"><g
               id="g32"><g
                 id="g34"
                 clip-path="url(#clipPath38)"><g
                   id="g40"
                   transform="scale(2.9985754)"><path
                     d="M 0,0 H 1170 V 830 H 0 Z"
                     style="fill:#ffffff;fill-opacity:1;fill-rule:nonzero;stroke:none"
                     id="path42"
                     inkscape:connector-curvature="0" /><path
                     d="M 0,0 H 1170 V 828 H 0 Z"
                     style="fill:#ffffff;fill-opacity:1;fill-rule:nonzero;stroke:none"
                     id="path44"
                     inkscape:connector-curvature="0" /></g></g></g><g
               id="g46"><g
                 id="g48"
                 clip-path="url(#clipPath52)"><g
                   id="g54"
                   transform="matrix(2.9985754,0,0,2.9985754,1.4992877,1.4992877)"><path
                     d="m 293,160 c -3e-5,0.39781 -0.0762,0.78049 -0.22839,1.14803 -0.15226,0.36753 -0.36902,0.69197 -0.6503,0.97328 -0.28134,0.28129 -0.60578,0.49807 -0.9733,0.65031 -0.36752,0.15224 -0.75021,0.22836 -1.14801,0.22838 -0.39786,-2e-5 -0.78055,-0.0761 -1.1481,-0.22838 -0.36752,-0.15224 -0.69196,-0.36902 -0.97324,-0.65031 -0.28131,-0.28131 -0.49808,-0.60575 -0.65033,-0.97328 C 287.07608,160.78049 286.99997,160.39781 287,160 c -3e-5,-0.39784 0.0761,-0.78053 0.22833,-1.14807 0.15225,-0.36754 0.36902,-0.69197 0.65033,-0.97327 0.28128,-0.28131 0.60572,-0.49809 0.97324,-0.65033 C 289.21945,157.07611 289.60214,157 290,157 c 0.3978,0 0.78049,0.0761 1.14801,0.22833 0.36752,0.15224 0.69196,0.36902 0.9733,0.65033 0.28128,0.2813 0.49804,0.60573 0.6503,0.97327 0.15222,0.36754 0.22836,0.75023 0.22839,1.14807 z"
                     style="fill:#ff0000;fill-opacity:1;fill-rule:nonzero;stroke:none"
                     id="path56"
                     inkscape:connector-curvature="0" /></g><g
                   id="g58"
                   transform="scale(2.9985754)"><text
                     transform="translate(294.65234,165)"
                     style="font-variant:normal;font-weight:normal;font-size:12px;font-family:Arial;-inkscape-font-specification:ArialMT;writing-mode:lr-tb;fill:#000000;fill-opacity:1;fill-rule:nonzero;stroke:none"
                     id="text62"><tspan
                       x="0 6.6738281"
                       y="0"
                       sodipodi:role="line"
                       id="tspan60">12</tspan></text>
</g><g
                   id="g64"
                   transform="matrix(2.9985754,0,0,2.9985754,1.4992877,1.4992877)"><path
                     d="m 403,240 c -6e-5,0.39781 -0.0762,0.7805 -0.22842,1.14804 -0.15226,0.36754 -0.36902,0.69196 -0.6503,0.97328 -0.28134,0.2813 -0.60575,0.49806 -0.97327,0.6503 -0.36755,0.15224 -0.75021,0.22836 -1.14801,0.22838 -0.39786,-2e-5 -0.78055,-0.0761 -1.1481,-0.22836 -0.36756,-0.15226 -0.69199,-0.36902 -0.97327,-0.65032 -0.28131,-0.28132 -0.49808,-0.60576 -0.65033,-0.97329 C 397.07605,240.78049 396.99997,240.39781 397,240 c -3e-5,-0.39784 0.0761,-0.78055 0.2283,-1.14809 0.15225,-0.36753 0.36902,-0.69195 0.65033,-0.97325 0.28128,-0.28129 0.60571,-0.49808 0.97327,-0.65031 C 399.21945,237.07611 399.60214,237 400,237 c 0.3978,0 0.78046,0.0761 1.14801,0.22835 0.36752,0.15223 0.69193,0.36902 0.97327,0.65031 0.28128,0.2813 0.49804,0.60572 0.6503,0.97325 0.15222,0.36754 0.22836,0.75025 0.22842,1.14809 z"
                     style="fill:#ff0000;fill-opacity:1;fill-rule:nonzero;stroke:none"
                     id="path66"
                     inkscape:connector-curvature="0" /></g><g
                   id="g68"
                   transform="scale(2.9985754)"><text
                     transform="translate(404.65234,245)"
                     style="font-variant:normal;font-weight:normal;font-size:12px;font-family:Arial;-inkscape-font-specification:ArialMT;writing-mode:lr-tb;fill:#000000;fill-opacity:1;fill-rule:nonzero;stroke:none"
                     id="text72"><tspan
                       x="0 6.6738281"
                       y="0"
                       sodipodi:role="line"
                       id="tspan70">14</tspan></text>
</g><g
                   id="g74"
                   transform="matrix(2.9985754,0,0,2.9985754,1.4992877,1.4992877)"><path
                     d="m 523,180 c -6e-5,0.39781 -0.0762,0.78049 -0.22839,1.14803 -0.15229,0.36755 -0.36902,0.69198 -0.65033,0.97328 -0.28131,0.28129 -0.60578,0.49806 -0.97327,0.65031 -0.36755,0.15224 -0.75024,0.22836 -1.14801,0.22838 -0.39789,-2e-5 -0.78058,-0.0761 -1.14813,-0.22838 -0.36749,-0.15225 -0.6919,-0.36902 -0.97321,-0.65031 -0.28131,-0.2813 -0.49811,-0.60573 -0.65033,-0.97328 C 517.07611,180.78049 517,180.39781 517,180 c 0,-0.39784 0.0761,-0.78053 0.22833,-1.14807 0.15222,-0.36754 0.36902,-0.69197 0.65033,-0.97327 0.28131,-0.28131 0.60572,-0.49809 0.97321,-0.65033 C 519.21942,177.07611 519.60211,177 520,177 c 0.39777,0 0.78046,0.0761 1.14801,0.22833 0.36749,0.15224 0.69196,0.36902 0.97327,0.65033 0.28131,0.2813 0.49804,0.60573 0.65033,0.97327 0.15222,0.36754 0.22833,0.75023 0.22839,1.14807 z"
                     style="fill:#ff0000;fill-opacity:1;fill-rule:nonzero;stroke:none"
                     id="path76"
                     inkscape:connector-curvature="0" /></g><g
                   id="g78"
                   transform="scale(2.9985754)"><text
                     transform="translate(524.65234,185)"
                     style="font-variant:normal;font-weight:normal;font-size:12px;font-family:Arial;-inkscape-font-specification:ArialMT;writing-mode:lr-tb;fill:#000000;fill-opacity:1;fill-rule:nonzero;stroke:none"
                     id="text82"><tspan
                       x="0 6.6738281"
                       y="0"
                       sodipodi:role="line"
                       id="tspan80">16</tspan></text>
</g><g
                   id="g84"
                   transform="matrix(2.9985754,0,0,2.9985754,1.4992877,1.4992877)"><path
                     d="M 400,240 290,160"
                     style="fill:none;stroke:#000000;stroke-width:1;stroke-linecap:butt;stroke-linejoin:miter;stroke-miterlimit:10;stroke-dasharray:none;stroke-opacity:1"
                     id="path86"
                     inkscape:connector-curvature="0" /><path
                     d="M 400,240 520,180"
                     style="fill:none;stroke:#000000;stroke-width:1;stroke-linecap:butt;stroke-linejoin:miter;stroke-miterlimit:10;stroke-dasharray:none;stroke-opacity:1"
                     id="path88"
                     inkscape:connector-curvature="0" /><path
                     d="m 280,239.5 h 3 v 1 h -3 m 6,-1 h 3 v 1 h -3 m 6,-1 h 3 v 1 h -3 m 6,-1 h 3 v 1 h -3 m 6,-1 h 3 v 1 h -3 m 6,-1 h 3 v 1 h -3 m 6,-1 h 3 v 1 h -3 m 6,-1 h 3 v 1 h -3 m 6,-1 h 3 v 1 h -3 m 6,-1 h 3 v 1 h -3 m 6,-1 h 3 v 1 h -3 m 6,-1 h 3 v 1 h -3 m 6,-1 h 3 v 1 h -3 m 6,-1 h 3 v 1 h -3 m 6,-1 h 3 v 1 h -3 m 6,-1 h 3 v 1 h -3 m 6,-1 h 3 v 1 h -3 m 6,-1 h 3 v 1 h -3 m 6,-1 h 3 v 1 h -3 m 6,-1 h 3 v 1 h -3 m 6,-1 h 3 v 1 h -3 m 6,-1 h 3 v 1 h -3 m 6,-1 h 3 v 1 h -3 m 6,-1 h 3 v 1 h -3 m 6,-1 h 3 v 1 h -3 m 6,-1 h 3 v 1 h -3 m 6,-1 h 3 v 1 h -3 m 6,-1 h 3 v 1 h -3 m 6,-1 h 3 v 1 h -3 m 6,-1 h 3 v 1 h -3 m 6,-1 h 3 v 1 h -3 m 6,-1 h 3 v 1 h -3 m 6,-1 h 3 v 1 h -3 m 6,-1 h 3 v 1 h -3 m 6,-1 h 3 v 1 h -3 m 6,-1 h 3 v 1 h -3 m 6,-1 h 3 v 1 h -3 m 6,-1 h 3 v 1 h -3 m 6,-1 h 3 v 1 h -3 m 6,-1 h 3 v 1 h -3 m 6,-1 h 3 v 1 h -3 m 6,-1 h 3 v 1 h -3 m 6,-1 h 3 v 1 h -3 m 6,-1 h 3 v 1 h -3 m 6,-1 h 3 v 1 h -3 m 6,-1 h 3 v 1 h -3"
                     style="fill:#000000;fill-opacity:1;fill-rule:nonzero;stroke:none"
                     id="path90"
                     inkscape:connector-curvature="0" /><path
                     d="m 558.88,240 -7,3.5 1.75,-3.5 -1.75,-3.5 z"
                     style="fill:#000000;fill-opacity:1;fill-rule:nonzero;stroke:none"
                     id="path92"
                     inkscape:connector-curvature="0" /><path
                     d="m 558.88,240 -7,3.5 1.75,-3.5 -1.75,-3.5 z"
                     style="fill:none;stroke:#000000;stroke-width:1;stroke-linecap:butt;stroke-linejoin:miter;stroke-miterlimit:10;stroke-dasharray:none;stroke-opacity:1"
                     id="path94"
                     inkscape:connector-curvature="0" /></g><g
                   id="g96"
                   transform="scale(2.9985754)"><text
                     transform="translate(283.21875,153)"
                     style="font-variant:normal;font-weight:normal;font-size:12px;font-family:Arial;-inkscape-font-specification:ArialMT;writing-mode:lr-tb;fill:#000000;fill-opacity:1;fill-rule:nonzero;stroke:none"
                     id="text100"><tspan
                       x="0"
                       y="0"
                       id="tspan98">P</tspan></text>
<text
                     transform="translate(291.21875,156)"
                     style="font-variant:normal;font-weight:normal;font-size:10px;font-family:Arial;-inkscape-font-specification:ArialMT;writing-mode:lr-tb;fill:#000000;fill-opacity:1;fill-rule:nonzero;stroke:none"
                     id="text104"><tspan
                       x="0"
                       y="0"
                       id="tspan102">1</tspan></text>
<text
                     transform="translate(393.21875,263)"
                     style="font-variant:normal;font-weight:normal;font-size:12px;font-family:Arial;-inkscape-font-specification:ArialMT;writing-mode:lr-tb;fill:#000000;fill-opacity:1;fill-rule:nonzero;stroke:none"
                     id="text108"><tspan
                       x="0"
                       y="0"
                       id="tspan106">P</tspan></text>
<text
                     transform="translate(401.21875,266)"
                     style="font-variant:normal;font-weight:normal;font-size:10px;font-family:Arial;-inkscape-font-specification:ArialMT;writing-mode:lr-tb;fill:#000000;fill-opacity:1;fill-rule:nonzero;stroke:none"
                     id="text112"><tspan
                       x="0"
                       y="0"
                       id="tspan110">2</tspan></text>
<text
                     transform="translate(513.21875,163)"
                     style="font-variant:normal;font-weight:normal;font-size:12px;font-family:Arial;-inkscape-font-specification:ArialMT;writing-mode:lr-tb;fill:#000000;fill-opacity:1;fill-rule:nonzero;stroke:none"
                     id="text116"><tspan
                       x="0"
                       y="0"
                       id="tspan114">P</tspan></text>
<text
                     transform="translate(521.21875,166)"
                     style="font-variant:normal;font-weight:normal;font-size:10px;font-family:Arial;-inkscape-font-specification:ArialMT;writing-mode:lr-tb;fill:#000000;fill-opacity:1;fill-rule:nonzero;stroke:none"
                     id="text120"><tspan
                       x="0"
                       y="0"
                       id="tspan118">3</tspan></text>
</g></g></g><g
               id="g122"><g
                 id="g124"
                 clip-path="url(#clipPath128)"><g
                   id="g130"
                   transform="scale(2.9985754)"><text
                     transform="translate(556,265)"
                     style="font-variant:normal;font-weight:normal;font-size:12px;font-family:Arial;-inkscape-font-specification:ArialMT;writing-mode:lr-tb;fill:#000000;fill-opacity:1;fill-rule:nonzero;stroke:none"
                     id="text134"><tspan
                       x="0"
                       y="0"
                       id="tspan132">X</tspan></text>
</g></g></g></g></g></g></g></g></svg>